<svg width="72" height="72" viewBox="0 0 72 72" fill="rgba(22, 24, 35, 0.34)" xmlns="http://www.w3.org/2000/svg"><path fill-rule="evenodd" clip-rule="evenodd" d="M34.4961 70.3557C34.7809 70.7422 35.2335 70.971 35.7166 70.971C36.1997 70.971 36.6522 70.7422 36.937 70.3557L45.7854 58.5121H65.6332C67.6978 58.5121 69.376 56.834 69.376 54.7693V4.77091C69.376 2.70629 67.6978 1.02815 65.6332 1.02815H5.79989C3.73527 1.02815 2.05713 2.70629 2.05713 4.77091V54.7693C2.05713 56.834 3.73527 58.5121 5.79989 58.5121H25.6477L34.4961 70.3557ZM5.10829 4.77135C5.10829 4.38996 5.4185 4.07976 5.79989 4.07976H65.6281C66.0095 4.07976 66.3197 4.38996 66.3197 4.77135V54.7749C66.3197 55.1562 66.0095 55.4665 65.6281 55.4665H45.0175C44.5395 55.4665 44.0869 55.6902 43.7971 56.0767L35.7166 66.8981L27.6361 56.0767C27.3513 55.6902 26.8987 55.4614 26.4156 55.4614H5.79989C5.4185 55.4614 5.10829 55.1512 5.10829 54.7698V4.77135Z"></path><path d="M49.6956 31.2955H21.7368C20.8926 31.2955 20.2112 30.6141 20.2112 29.7699C20.2112 28.9258 20.8926 28.2443 21.7368 28.2443H49.6956C50.5398 28.2443 51.2212 28.9258 51.2212 29.7699C51.2212 30.6141 50.5398 31.2955 49.6956 31.2955Z"></path></svg>
