<svg width="75" height="49" viewBox="0 0 75 49" fill="none" xmlns="http://www.w3.org/2000/svg">
<rect opacity="0.01" x="0.25" y="0.25" width="74.5" height="48.5" fill="#D8D8D8" stroke="#979797" stroke-width="0.5"/>
<path fill-rule="evenodd" clip-rule="evenodd" d="M23.5 23.3C23.5 18.8196 23.5 16.5794 24.3719 14.8681C25.1389 13.3628 26.3628 12.1389 27.8681 11.3719C29.5794 10.5 31.8196 10.5 36.3 10.5H46.2C50.6804 10.5 52.9206 10.5 54.6319 11.3719C56.1372 12.1389 57.3611 13.3628 58.1281 14.8681C59 16.5794 59 18.8196 59 23.3V25.7C59 30.1804 59 32.4206 58.1281 34.1319C57.3611 35.6372 56.1372 36.8611 54.6319 37.6281C52.9206 38.5 50.6804 38.5 46.2 38.5H36.3C31.8196 38.5 29.5794 38.5 27.8681 37.6281C26.3628 36.8611 25.1389 35.6372 24.3719 34.1319C23.5 32.4206 23.5 30.1804 23.5 25.7V23.3Z" fill="#FA2D6C"/>
<path fill-rule="evenodd" clip-rule="evenodd" d="M16 23.3C16 18.8196 16 16.5794 16.8719 14.8681C17.6389 13.3628 18.8628 12.1389 20.3681 11.3719C22.0794 10.5 24.3196 10.5 28.8 10.5H38.7C43.1804 10.5 45.4206 10.5 47.1319 11.3719C48.6372 12.1389 49.8611 13.3628 50.6281 14.8681C51.5 16.5794 51.5 18.8196 51.5 23.3V25.7C51.5 30.1804 51.5 32.4206 50.6281 34.1319C49.8611 35.6372 48.6372 36.8611 47.1319 37.6281C45.4206 38.5 43.1804 38.5 38.7 38.5H28.8C24.3196 38.5 22.0794 38.5 20.3681 37.6281C18.8628 36.8611 17.6389 35.6372 16.8719 34.1319C16 32.4206 16 30.1804 16 25.7V23.3Z" fill="#20D5EC"/>
<rect x="19.5" y="10.5" width="36" height="28" rx="8" fill="white"/>
<path fill-rule="evenodd" clip-rule="evenodd" d="M36.5 18.25C36.2239 18.25 36 18.4739 36 18.75V23.5H31.25C30.9739 23.5 30.75 23.7239 30.75 24V25.5C30.75 25.7761 30.9739 26 31.25 26H36V30.75C36 31.0261 36.2239 31.25 36.5 31.25H38C38.2761 31.25 38.5 31.0261 38.5 30.75V26H43.25C43.5261 26 43.75 25.7761 43.75 25.5V24C43.75 23.7239 43.5261 23.5 43.25 23.5H38.5V18.75C38.5 18.4739 38.2761 18.25 38 18.25H36.5Z" fill="#161823"/>
</svg>
