<svg style="fill-opacity:0.75" width="35" height="35" viewBox="0 0 48 48" fill="#fff" xmlns="http://www.w3.org/2000/svg"><path fill-rule="evenodd" clip-rule="evenodd" d="M21.7764 10.5C16.1265 10.5 11.5 15.172 11.5 20.993C11.5 26.814 16.1265 31.486 21.7764 31.486C24.5005 31.486 26.9782 30.4054 28.8221 28.6314C30.8097 26.7191 32.0527 24.0079 32.0527 20.993C32.0527 15.172 27.4262 10.5 21.7764 10.5ZM8.5 20.993C8.5 13.5669 14.4184 7.5 21.7764 7.5C29.1344 7.5 35.0527 13.5669 35.0527 20.993C35.0527 24.2993 33.881 27.3328 31.9342 29.6817L38.3696 36.2355C38.7566 36.6296 38.7508 37.2627 38.3568 37.6497L37.6432 38.3503C37.2492 38.7373 36.616 38.7315 36.2291 38.3374L29.7742 31.7638C27.5523 33.4701 24.7814 34.486 21.7764 34.486C14.4184 34.486 8.5 28.4191 8.5 20.993Z"></path></svg>
