<svg width="35" height="35" viewBox="0 0 48 48" fill="#000000FF" xmlns="http://www.w3.org/2000/svg"><path fill-rule="evenodd" clip-rule="evenodd" d="M21.8648 11.8276C16.9012 11.8276 12.8076 15.937 12.8076 21.0928C12.8076 26.2487 16.9012 30.358 21.8648 30.358C24.2608 30.358 26.4413 29.4088 28.0684 27.8434C29.823 26.1553 30.922 23.7608 30.922 21.0928C30.922 15.937 26.8285 11.8276 21.8648 11.8276ZM8.30762 21.0928C8.30762 13.5294 14.3389 7.32764 21.8648 7.32764C29.3907 7.32764 35.422 13.5294 35.422 21.0928C35.422 24.1907 34.4121 27.0558 32.7055 29.3599L39.5295 36.184C39.92 36.5745 39.92 37.2077 39.5295 37.5982L37.7617 39.366C37.3712 39.7565 36.7381 39.7565 36.3475 39.366L29.4706 32.4891C27.3047 33.9816 24.686 34.858 21.8648 34.858C14.3389 34.858 8.30762 28.6563 8.30762 21.0928Z"></path></svg>
