<svg width="20" height="20" viewBox="0 0 48 48" fill="rgba(22, 24, 35, 0.5)" xmlns="http://www.w3.org/2000/svg"><path fill-rule="evenodd" clip-rule="evenodd" d="M25.4142 2.58579C24.6332 1.80474 23.3668 1.80474 22.5858 2.58579C21.8425 3.32905 20.6045 4.08438 19.0002 4.79737C17.4279 5.4962 15.649 6.09169 13.9506 6.57694C12.258 7.06052 10.681 7.42462 9.52548 7.66787C8.94887 7.78926 8.48002 7.87998 8.15763 7.93996C7.9965 7.96994 7.87214 7.9922 7.78941 8.00675L7.69721 8.02276L7.6757 8.02642L7.67089 8.02723C6.7067 8.18809 6.00003 9.02235 6 9.9999V10.0009L6.00013 10.2264C6.00026 10.3735 6.00052 10.589 6.00106 10.8632C6.00212 11.4116 6.00426 12.1946 6.00857 13.1341C6.01716 15.0092 6.03438 17.5102 6.0689 20.0141C6.073 28.6446 9.84799 34.8734 13.867 38.9109C15.8704 40.9236 17.9455 42.4054 19.6754 43.3931C20.5398 43.8866 21.3373 44.2678 22.0161 44.5319C22.6125 44.7638 23.3489 45 24 45C24.6511 45 25.3875 44.7638 25.9839 44.5319C26.6627 44.2678 27.4602 43.8866 28.3246 43.3931C30.0545 42.4054 32.1296 40.9236 34.133 38.9109C38.1523 34.8731 41.9276 28.6436 41.9311 20.0119C41.9655 17.0118 41.9827 14.5114 41.9914 12.7598C41.9957 11.883 41.9978 11.1937 41.9989 10.7233C41.9995 10.4881 41.9997 10.3076 41.9999 10.1858L42 9.99997C42 9.02229 41.2931 8.18789 40.3287 8.02716L40.3243 8.02642L40.3028 8.02276L40.2106 8.00675C40.1279 7.9922 40.0035 7.96994 39.8424 7.93996C39.52 7.87998 39.0511 7.78926 38.4745 7.66787C37.319 7.42462 35.742 7.06052 34.0494 6.57694C32.3511 6.09169 30.5721 5.4962 28.9998 4.79737C27.3955 4.08438 26.1575 3.32905 25.4142 2.58579ZM10.0085 13.1158C10.006 12.5704 10.0043 12.078 10.003 11.6541C10.114 11.6313 10.2296 11.6073 10.3495 11.5821C11.569 11.3253 13.242 10.9394 15.0494 10.423C16.8511 9.90829 18.8221 9.25378 20.6248 8.45262C21.8024 7.92922 22.9762 7.31398 24 6.59088C25.0238 7.31398 26.1976 7.92922 27.3752 8.45262C29.1779 9.25378 31.1489 9.90829 32.9506 10.423C34.758 10.9394 36.431 11.3253 37.6505 11.5821C37.77 11.6072 37.8853 11.6312 37.9961 11.6539C37.9949 11.974 37.9934 12.3371 37.9914 12.7401C37.9828 14.4865 37.9656 16.9821 37.9312 19.977L37.9311 20C37.9311 27.3621 34.7425 32.6288 31.2981 36.089C29.5687 37.8263 27.786 39.0945 26.3413 39.9194C25.6184 40.3321 24.9995 40.6228 24.5336 40.804C24.2544 40.9126 24.082 40.9614 24 40.9832C23.918 40.9614 23.7456 40.9126 23.4664 40.804C23.0006 40.6228 22.3816 40.3321 21.6587 39.9194C20.214 39.0945 18.4313 37.8263 16.7019 36.089C13.2575 32.6288 10.0689 27.3621 10.0689 20L10.0687 19.9724C10.0343 17.4807 10.0171 14.9874 10.0085 13.1158ZM32.1496 20.6397C32.5505 20.2598 32.5676 19.6269 32.1878 19.226L30.8123 17.774C30.4324 17.3731 29.7995 17.356 29.3986 17.7358L21.9652 24.778L19.0812 22.1824C18.6707 21.8129 18.0384 21.8462 17.669 22.2567L16.3311 23.7433C15.9616 24.1538 15.9949 24.7861 16.4054 25.1556L20.6621 28.9866C21.4373 29.6842 22.6184 29.6692 23.3755 28.9519L32.1496 20.6397Z"></path></svg>
