<svg width="24" height="24" viewBox="0 0 48 48" fill="currentColor" xmlns="http://www.w3.org/2000/svg"><path fill-rule="evenodd" clip-rule="evenodd" d="M8.70963 10.5561C12.9471 6.35097 19.64 6.41437 24 11.1862C28.36 6.41437 35.0529 6.35097 39.2904 10.5561C42.1715 13.4152 43.113 17.4725 42.1146 21.1146L39.4961 18.4961C39.5623 16.4013 38.7894 14.2854 37.1772 12.6855C34.1234 9.65506 29.2603 9.6593 26.0149 13.4353L25.9761 13.4804L25.0566 14.3929C24.4717 14.9733 23.5283 14.9733 22.9434 14.3929L22.0239 13.4804L21.9851 13.4353C18.7397 9.6593 13.8766 9.65506 10.8228 12.6855C7.72574 15.7589 7.72574 20.737 10.8228 23.8103L24 36.8867L25.9508 34.9508L28.0722 37.0722L25.0566 40.0647C24.4717 40.6451 23.5283 40.6451 22.9434 40.0647L8.70963 25.9398C4.43012 21.693 4.43012 14.8028 8.70963 10.5561ZM41.8547 31.8547C42.5181 31.221 43.0671 30.5964 43.4771 30.069C43.7303 29.7431 43.943 29.4384 44.1007 29.1776C44.1782 29.0494 44.2559 28.9097 44.3196 28.7693L44.3231 28.7616C44.3596 28.6818 44.5 28.3746 44.5 28C44.5 27.6997 44.4118 27.4447 44.3829 27.3612L44.3824 27.3598C44.336 27.2256 44.2775 27.0887 44.2154 26.9574C44.0898 26.6917 43.9165 26.3798 43.7009 26.043C43.269 25.3681 42.6327 24.5392 41.7879 23.7295C40.0972 22.1093 37.4942 20.5 34 20.5C32.8886 20.5 31.8674 20.6628 30.937 20.937L33.5145 23.5145C33.6737 23.5049 33.8355 23.5 34 23.5C36.5058 23.5 38.4028 24.6407 39.7121 25.8955C40.3673 26.5233 40.856 27.1631 41.1741 27.6601C41.2352 27.7556 41.2888 27.8439 41.3351 27.9238C41.2707 28.0144 41.1952 28.1163 41.1084 28.2279C40.7739 28.6583 40.3058 29.1905 39.7327 29.7327L41.8547 31.8547ZM36.0129 32.1342C35.3571 32.3659 34.6812 32.5 34 32.5C32.0511 32.5 30.1463 31.4024 28.6286 30.0629C27.8895 29.4105 27.2939 28.7455 26.8916 28.2279C26.8048 28.1163 26.7293 28.0144 26.6649 27.9238C26.7112 27.8439 26.7648 27.7556 26.8259 27.6601C27.144 27.1631 27.6327 26.5233 28.2879 25.8955C28.5335 25.6601 28.7998 25.4287 29.0869 25.2082L36.0129 32.1342ZM26.9521 23.0734C26.6886 23.2892 26.442 23.5093 26.2121 23.7295C25.3673 24.5392 24.731 25.3681 24.2991 26.043C24.0835 26.3798 23.9102 26.6917 23.7846 26.9574C23.7225 27.0887 23.664 27.2256 23.6176 27.3598L23.6171 27.3612C23.5882 27.4447 23.5 27.6997 23.5 28C23.5 28.3746 23.6404 28.6818 23.6769 28.7616L23.6804 28.7693C23.7441 28.9097 23.8218 29.0494 23.8993 29.1776C24.057 29.4384 24.2697 29.7431 24.5229 30.069C25.0315 30.7233 25.7539 31.527 26.6434 32.3121C28.3831 33.8476 30.9784 35.5 34 35.5C35.5657 35.5 37.0169 35.0564 38.2939 34.4152L40.2323 36.3537C40.6229 36.7442 41.256 36.7442 41.6466 36.3537L42.3537 35.6466C42.7442 35.256 42.7442 34.6229 42.3537 34.2323L27.7679 19.6466C27.3774 19.256 26.7442 19.256 26.3537 19.6466L25.6466 20.3537C25.256 20.7442 25.256 21.3774 25.6466 21.7679L26.9521 23.0734Z"></path></svg>
